<svg width="135" height="31" viewBox="0 0 135 31" fill="none" xmlns="http://www.w3.org/2000/svg">
<path d="M0.24 15.6C0.24 12.6133 0.8 10.0133 1.92 7.8C3.06667 5.56 4.72 3.82666 6.88 2.6C9.06667 1.34666 11.7067 0.719998 14.8 0.719998C16.16 0.719998 17.36 0.839998 18.4 1.08C19.4667 1.29333 20.4 1.6 21.2 2V5.68H20.88C20.08 5.2 19.16 4.84 18.12 4.6C17.1067 4.36 16 4.24 14.8 4.24C12.6667 4.24 10.8 4.65333 9.2 5.48C7.62667 6.30667 6.4 7.56 5.52 9.24C4.66667 10.92 4.24 13.04 4.24 15.6C4.24 18.16 4.66667 20.28 5.52 21.96C6.4 23.64 7.62667 24.8933 9.2 25.72C10.8 26.5467 12.6667 26.96 14.8 26.96C16 26.96 17.1067 26.84 18.12 26.6C19.16 26.36 20.08 26 20.88 25.52H21.2V29.2C20.4 29.6 19.4667 29.9067 18.4 30.12C17.36 30.36 16.16 30.48 14.8 30.48C11.7067 30.48 9.06667 29.8933 6.88 28.72C4.72 27.52 3.06667 25.8133 1.92 23.6C0.8 21.36 0.24 18.6933 0.24 15.6ZM26.4575 1.2H30.2975V19.28C30.2975 22.08 30.8575 24.0667 31.9775 25.24C33.0975 26.3867 34.7775 26.96 37.0175 26.96C39.2575 26.96 40.9375 26.3867 42.0575 25.24C43.1775 24.0667 43.7375 22.08 43.7375 19.28V1.2H47.5775V19.28C47.5775 22.96 46.6708 25.7467 44.8575 27.64C43.0708 29.5333 40.4575 30.48 37.0175 30.48C33.4975 30.48 30.8575 29.5333 29.0975 27.64C27.3375 25.7467 26.4575 22.96 26.4575 19.28V1.2ZM52.6616 25.28H52.9816C53.6216 25.6267 54.3416 25.9333 55.1416 26.2C55.9682 26.44 56.8616 26.6267 57.8216 26.76C58.8082 26.8933 59.8616 26.96 60.9816 26.96C62.2616 26.96 63.3949 26.84 64.3816 26.6C65.3949 26.3333 66.1816 25.9067 66.7416 25.32C67.3282 24.7067 67.6216 23.8667 67.6216 22.8C67.6216 21.52 67.2482 20.6 66.5016 20.04C65.7816 19.48 64.6882 19.0667 63.2216 18.8L59.7016 18.16C58.3682 17.92 57.1416 17.4933 56.0216 16.88C54.9016 16.24 54.0082 15.36 53.3416 14.24C52.6749 13.12 52.3416 11.7067 52.3416 10C52.3416 7.86667 52.8349 6.12 53.8216 4.76C54.8349 3.37333 56.2349 2.36 58.0216 1.72C59.8349 1.05333 61.9416 0.719998 64.3416 0.719998C65.4616 0.719998 66.5682 0.826665 67.6616 1.04C68.7816 1.25333 69.7016 1.52 70.4216 1.84V5.52H70.1016C69.4616 5.2 68.6482 4.90667 67.6616 4.64C66.7016 4.37333 65.5416 4.24 64.1816 4.24C62.6882 4.24 61.3282 4.42666 60.1016 4.8C58.9016 5.17333 57.9416 5.77333 57.2216 6.6C56.5282 7.42667 56.1816 8.50667 56.1816 9.84C56.1816 11.52 56.6216 12.6933 57.5016 13.36C58.3816 14.0267 59.5949 14.5067 61.1416 14.8L64.6616 15.44C66.0216 15.68 67.2082 16.0933 68.2216 16.68C69.2349 17.2667 70.0216 18.0533 70.5816 19.04C71.1682 20 71.4616 21.2 71.4616 22.64C71.4616 23.9467 71.2082 25.0933 70.7016 26.08C70.1949 27.0667 69.4749 27.8933 68.5416 28.56C67.6349 29.2 66.5416 29.68 65.2616 30C63.9816 30.32 62.5549 30.48 60.9816 30.48C59.8616 30.48 58.7949 30.4133 57.7816 30.28C56.7949 30.1467 55.8616 29.9733 54.9816 29.76C54.1282 29.5467 53.3549 29.3067 52.6616 29.04V25.28ZM76.3009 1.2H80.1409V30H76.3009V1.2ZM86.8244 30V1.2H90.0244L106.584 18.68V24.08L89.6244 6.2L90.6644 5.76V30H86.8244ZM104.744 30V1.2H108.584V30H104.744ZM113.358 30L116.558 10.8C116.824 9.2 117.211 7.78667 117.718 6.56C118.251 5.33333 118.958 4.29333 119.838 3.44C120.718 2.58667 121.851 1.94667 123.238 1.52C124.624 1.09333 126.318 0.879998 128.318 0.879998C129.278 0.879998 130.238 0.933332 131.198 1.04C132.184 1.12 133.198 1.28 134.238 1.52L134.318 2C134.238 2.53333 134.171 3.2 134.118 4C134.091 4.8 134.078 5.6 134.078 6.4C134.078 7.2 134.078 7.86667 134.078 8.4V30H130.238V6.32C130.238 5.78667 130.238 5.29333 130.238 4.84C130.264 4.36 130.318 3.90667 130.398 3.48L131.038 4.64C130.691 4.48 130.264 4.37333 129.758 4.32C129.278 4.26666 128.744 4.24 128.158 4.24C126.398 4.24 124.998 4.48 123.958 4.96C122.944 5.44 122.171 6.16 121.638 7.12C121.131 8.08 120.744 9.30667 120.478 10.8L117.278 30H113.358ZM117.358 21.2V17.84H131.838V21.2H117.358Z" fill="white"/>
</svg>
