<svg width="185" height="37" viewBox="0 0 185 37" fill="none" xmlns="http://www.w3.org/2000/svg">
<path d="M50.2227 17.6C50.2227 14.6133 50.7827 12.0133 51.9027 9.8C53.0494 7.56 54.7027 5.82666 56.8627 4.6C59.0494 3.34666 61.6894 2.72 64.7827 2.72C66.1427 2.72 67.3427 2.84 68.3827 3.08C69.4494 3.29333 70.3827 3.6 71.1827 4V7.68H70.8627C70.0627 7.2 69.1427 6.84 68.1027 6.6C67.0894 6.36 65.9827 6.24 64.7827 6.24C62.6494 6.24 60.7827 6.65333 59.1827 7.48C57.6094 8.30667 56.3827 9.56 55.5027 11.24C54.6494 12.92 54.2227 15.04 54.2227 17.6C54.2227 20.16 54.6494 22.28 55.5027 23.96C56.3827 25.64 57.6094 26.8933 59.1827 27.72C60.7827 28.5467 62.6494 28.96 64.7827 28.96C65.9827 28.96 67.0894 28.84 68.1027 28.6C69.1427 28.36 70.0627 28 70.8627 27.52H71.1827V31.2C70.3827 31.6 69.4494 31.9067 68.3827 32.12C67.3427 32.36 66.1427 32.48 64.7827 32.48C61.6894 32.48 59.0494 31.8933 56.8627 30.72C54.7027 29.52 53.0494 27.8133 51.9027 25.6C50.7827 23.36 50.2227 20.6933 50.2227 17.6Z" fill="white"/>
<path d="M76.4402 3.2H80.2802V21.28C80.2802 24.08 80.8402 26.0667 81.9602 27.24C83.0802 28.3867 84.7602 28.96 87.0002 28.96C89.2402 28.96 90.9202 28.3867 92.0402 27.24C93.1602 26.0667 93.7202 24.08 93.7202 21.28V3.2H97.5602V21.28C97.5602 24.96 96.6535 27.7467 94.8402 29.64C93.0535 31.5333 90.4402 32.48 87.0002 32.48C83.4802 32.48 80.8402 31.5333 79.0802 29.64C77.3202 27.7467 76.4402 24.96 76.4402 21.28V3.2Z" fill="white"/>
<path d="M102.644 27.28H102.964C103.604 27.6267 104.324 27.9333 105.124 28.2C105.951 28.44 106.844 28.6267 107.804 28.76C108.791 28.8933 109.844 28.96 110.964 28.96C112.244 28.96 113.378 28.84 114.364 28.6C115.378 28.3333 116.164 27.9067 116.724 27.32C117.311 26.7067 117.604 25.8667 117.604 24.8C117.604 23.52 117.231 22.6 116.484 22.04C115.764 21.48 114.671 21.0667 113.204 20.8L109.684 20.16C108.351 19.92 107.124 19.4933 106.004 18.88C104.884 18.24 103.991 17.36 103.324 16.24C102.658 15.12 102.324 13.7067 102.324 12C102.324 9.86667 102.818 8.12 103.804 6.76C104.818 5.37333 106.218 4.36 108.004 3.72C109.818 3.05333 111.924 2.72 114.324 2.72C115.444 2.72 116.551 2.82666 117.644 3.04C118.764 3.25333 119.684 3.52 120.404 3.84V7.52H120.084C119.444 7.2 118.631 6.90667 117.644 6.64C116.684 6.37333 115.524 6.24 114.164 6.24C112.671 6.24 111.311 6.42666 110.084 6.8C108.884 7.17333 107.924 7.77333 107.204 8.6C106.511 9.42667 106.164 10.5067 106.164 11.84C106.164 13.52 106.604 14.6933 107.484 15.36C108.364 16.0267 109.578 16.5067 111.124 16.8L114.644 17.44C116.004 17.68 117.191 18.0933 118.204 18.68C119.218 19.2667 120.004 20.0533 120.564 21.04C121.151 22 121.444 23.2 121.444 24.64C121.444 25.9467 121.191 27.0933 120.684 28.08C120.178 29.0667 119.458 29.8933 118.524 30.56C117.618 31.2 116.524 31.68 115.244 32C113.964 32.32 112.538 32.48 110.964 32.48C109.844 32.48 108.778 32.4133 107.764 32.28C106.778 32.1467 105.844 31.9733 104.964 31.76C104.111 31.5467 103.338 31.3067 102.644 31.04V27.28Z" fill="white"/>
<path d="M126.284 3.2H130.124V32H126.284V3.2Z" fill="white"/>
<path d="M136.807 32V3.2H140.007L156.567 20.68V26.08L139.607 8.2L140.647 7.76V32H136.807ZM154.727 32V3.2H158.567V32H154.727Z" fill="white"/>
<path d="M163.34 32L166.54 12.8C166.807 11.2 167.194 9.78667 167.7 8.56C168.234 7.33333 168.94 6.29333 169.82 5.44C170.7 4.58667 171.834 3.94667 173.22 3.52C174.607 3.09333 176.3 2.88 178.3 2.88C179.26 2.88 180.22 2.93333 181.18 3.04C182.167 3.12 183.18 3.28 184.22 3.52L184.3 4C184.22 4.53333 184.154 5.2 184.1 6C184.074 6.8 184.06 7.6 184.06 8.4C184.06 9.2 184.06 9.86667 184.06 10.4V32H180.22V8.32C180.22 7.78667 180.22 7.29333 180.22 6.84C180.247 6.36 180.3 5.90667 180.38 5.48L181.02 6.64C180.674 6.48 180.247 6.37333 179.74 6.32C179.26 6.26666 178.727 6.24 178.14 6.24C176.38 6.24 174.98 6.48 173.94 6.96C172.927 7.44 172.154 8.16 171.62 9.12C171.114 10.08 170.727 11.3067 170.46 12.8L167.26 32H163.34ZM167.34 23.2V19.84H181.82V23.2H167.34Z" fill="white"/>
<path d="M31.5878 36.8021V21.0373C34.6315 19.9458 36.6696 17.0308 36.6787 13.7558V0.845917H31.5878V13.7558C31.5878 15.1818 30.4483 16.338 29.0425 16.338C27.6367 16.338 26.4969 15.1822 26.4969 13.7558V0.845917H21.4059V13.7558C21.415 17.0303 23.4531 19.9454 26.4969 21.0373V36.8021H31.5878Z" fill="white"/>
<path d="M10.1818 36.3845V20.6197C13.2256 19.5282 15.2637 16.6132 15.2727 13.3382V8.17419C15.2727 3.89623 11.854 0.428345 7.63657 0.428345C3.41878 0.428345 0 3.89623 0 8.17419V13.3382C0.00905636 16.6128 2.04715 19.5278 5.09091 20.6197V36.3845H10.1818Z" fill="white"/>
</svg>
