<svg width="188" height="48" viewBox="0 0 188 48" fill="none" xmlns="http://www.w3.org/2000/svg">
<path d="M50.1836 19.6C50.1836 16.6133 50.7436 14.0133 51.8636 11.8C53.0103 9.56 54.6636 7.82666 56.8236 6.6C59.0103 5.34666 61.6503 4.72 64.7436 4.72C66.1036 4.72 67.3036 4.84 68.3436 5.08C69.4103 5.29333 70.3436 5.6 71.1436 6V9.68H70.8236C70.0236 9.2 69.1036 8.84 68.0636 8.6C67.0503 8.36 65.9436 8.24 64.7436 8.24C62.6103 8.24 60.7436 8.65333 59.1436 9.48C57.5703 10.3067 56.3436 11.56 55.4636 13.24C54.6103 14.92 54.1836 17.04 54.1836 19.6C54.1836 22.16 54.6103 24.28 55.4636 25.96C56.3436 27.64 57.5703 28.8933 59.1436 29.72C60.7436 30.5467 62.6103 30.96 64.7436 30.96C65.9436 30.96 67.0503 30.84 68.0636 30.6C69.1036 30.36 70.0236 30 70.8236 29.52H71.1436V33.2C70.3436 33.6 69.4103 33.9067 68.3436 34.12C67.3036 34.36 66.1036 34.48 64.7436 34.48C61.6503 34.48 59.0103 33.8933 56.8236 32.72C54.6636 31.52 53.0103 29.8133 51.8636 27.6C50.7436 25.36 50.1836 22.6933 50.1836 19.6ZM76.4011 5.2H80.2411V23.28C80.2411 26.08 80.8011 28.0667 81.9211 29.24C83.0411 30.3867 84.7211 30.96 86.9611 30.96C89.2011 30.96 90.8811 30.3867 92.0011 29.24C93.1211 28.0667 93.6811 26.08 93.6811 23.28V5.2H97.5211V23.28C97.5211 26.96 96.6145 29.7467 94.8011 31.64C93.0145 33.5333 90.4011 34.48 86.9611 34.48C83.4411 34.48 80.8011 33.5333 79.0411 31.64C77.2811 29.7467 76.4011 26.96 76.4011 23.28V5.2ZM102.605 29.28H102.925C103.565 29.6267 104.285 29.9333 105.085 30.2C105.912 30.44 106.805 30.6267 107.765 30.76C108.752 30.8933 109.805 30.96 110.925 30.96C112.205 30.96 113.339 30.84 114.325 30.6C115.339 30.3333 116.125 29.9067 116.685 29.32C117.272 28.7067 117.565 27.8667 117.565 26.8C117.565 25.52 117.192 24.6 116.445 24.04C115.725 23.48 114.632 23.0667 113.165 22.8L109.645 22.16C108.312 21.92 107.085 21.4933 105.965 20.88C104.845 20.24 103.952 19.36 103.285 18.24C102.619 17.12 102.285 15.7067 102.285 14C102.285 11.8667 102.779 10.12 103.765 8.76C104.779 7.37333 106.179 6.36 107.965 5.72C109.779 5.05333 111.885 4.72 114.285 4.72C115.405 4.72 116.512 4.82666 117.605 5.04C118.725 5.25333 119.645 5.52 120.365 5.84V9.52H120.045C119.405 9.2 118.592 8.90667 117.605 8.64C116.645 8.37333 115.485 8.24 114.125 8.24C112.632 8.24 111.272 8.42666 110.045 8.8C108.845 9.17333 107.885 9.77333 107.165 10.6C106.472 11.4267 106.125 12.5067 106.125 13.84C106.125 15.52 106.565 16.6933 107.445 17.36C108.325 18.0267 109.539 18.5067 111.085 18.8L114.605 19.44C115.965 19.68 117.152 20.0933 118.165 20.68C119.179 21.2667 119.965 22.0533 120.525 23.04C121.112 24 121.405 25.2 121.405 26.64C121.405 27.9467 121.152 29.0933 120.645 30.08C120.139 31.0667 119.419 31.8933 118.485 32.56C117.579 33.2 116.485 33.68 115.205 34C113.925 34.32 112.499 34.48 110.925 34.48C109.805 34.48 108.739 34.4133 107.725 34.28C106.739 34.1467 105.805 33.9733 104.925 33.76C104.072 33.5467 103.299 33.3067 102.605 33.04V29.28ZM126.245 5.2H130.085V34H126.245V5.2ZM136.768 34V5.2H139.968L156.528 22.68V28.08L139.568 10.2L140.608 9.76V34H136.768ZM154.688 34V5.2H158.528V34H154.688ZM163.301 34L166.501 14.8C166.768 13.2 167.154 11.7867 167.661 10.56C168.194 9.33333 168.901 8.29333 169.781 7.44C170.661 6.58667 171.794 5.94667 173.181 5.52C174.568 5.09333 176.261 4.88 178.261 4.88C179.221 4.88 180.181 4.93333 181.141 5.04C182.128 5.12 183.141 5.28 184.181 5.52L184.261 6C184.181 6.53333 184.114 7.2 184.061 8C184.034 8.8 184.021 9.6 184.021 10.4C184.021 11.2 184.021 11.8667 184.021 12.4V34H180.181V10.32C180.181 9.78667 180.181 9.29333 180.181 8.84C180.208 8.36 180.261 7.90667 180.341 7.48L180.981 8.64C180.634 8.48 180.208 8.37333 179.701 8.32C179.221 8.26666 178.688 8.24 178.101 8.24C176.341 8.24 174.941 8.48 173.901 8.96C172.888 9.44 172.114 10.16 171.581 11.12C171.074 12.08 170.688 13.3067 170.421 14.8L167.221 34H163.301ZM167.301 25.2V21.84H181.781V25.2H167.301Z" fill="white"/>
<path d="M31.5878 38.8021V23.0373C34.6315 21.9458 36.6696 19.0308 36.6787 15.7558V2.84592H31.5878V15.7558C31.5878 17.1818 30.4483 18.338 29.0425 18.338C27.6367 18.338 26.4969 17.1822 26.4969 15.7558V2.84592H21.4059V15.7558C21.415 19.0303 23.4531 21.9454 26.4969 23.0373V38.8021H31.5878V38.8021Z" fill="white"/>
<path d="M10.1818 38.3845V22.6197C13.2256 21.5282 15.2637 18.6132 15.2727 15.3382V10.1742C15.2727 5.89623 11.854 2.42834 7.63657 2.42834C3.41878 2.42834 0 5.89623 0 10.1742V15.3382C0.00905636 18.6128 2.04715 21.5278 5.09091 22.6197V38.3845H10.1818V38.3845Z" fill="white"/>
</svg>
