<svg width="37" height="37" viewBox="0 0 37 37" fill="none" xmlns="http://www.w3.org/2000/svg">
<path d="M31.6441 36.8021V21.0373C34.6879 19.9458 36.726 17.0308 36.735 13.7558V0.845917H31.6441V13.7558C31.6441 15.1818 30.5047 16.338 29.0989 16.338C27.6931 16.338 26.5532 15.1822 26.5532 13.7558V0.845917H21.4623V13.7558C21.4714 17.0303 23.5094 19.9454 26.5532 21.0373V36.8021H31.6441Z" fill="white"/>
<path d="M10.2382 36.3845V20.6197C13.2819 19.5282 15.32 16.6132 15.3291 13.3382V8.17419C15.3291 3.89623 11.9103 0.428345 7.69292 0.428345C3.47513 0.428345 0.0563507 3.89623 0.0563507 8.17419V13.3382C0.0654071 16.6128 2.1035 19.5278 5.14726 20.6197V36.3845H10.2382Z" fill="white"/>
</svg>
