<svg width="41" height="48" viewBox="0 0 41 48" fill="none" xmlns="http://www.w3.org/2000/svg">
<g clip-path="url(#clip0)">
<path d="M40.7471 38.2595C40.7379 38.2452 40.729 38.2307 40.7199 38.2167C40.6829 38.1588 40.6473 38.1023 40.6124 38.045C40.5286 37.9225 40.435 37.7963 40.3255 37.6624L38.9672 35.928C38.369 35.2387 37.3779 34.1563 36.2434 32.9371C37.6538 30.1282 38.2545 26.9033 37.8616 23.6489C37.7885 23.0431 37.6947 22.4257 37.4691 21.8828C36.6164 19.0789 34.7783 15.8393 34.7783 15.8393C34.5632 16.0648 34.5071 16.2832 34.4434 16.4994C34.1334 17.5502 33.657 18.5014 32.6268 18.9957C31.0579 19.7494 29.2694 19.5091 27.9712 18.5566V18.5574C25.0996 16.7416 23.9895 11.8497 23.6043 9.40622C23.5778 9.24144 23.2212 7.3396 23.2212 7.3396L23.2209 7.33538C22.9067 6.27856 22.6536 5.1927 22.1659 4.22593C21.1808 2.27313 19.6103 0.866154 17.3425 0C18.1769 1.89049 17.9819 3.5544 17.1088 5.11084C16.4869 6.21941 15.7673 7.28599 14.9851 8.28682C13.2238 10.5396 11.3014 12.6694 9.61714 14.9773C6.70597 18.9664 5.27044 23.3991 6.16247 28.4125C6.6609 31.2146 7.82495 33.6865 9.44444 35.7188L6.0718 39.5899L6.07206 39.5896L0.808699 45.053C0.686581 45.1742 0.581235 45.2896 0.485585 45.4021C0.445229 45.4554 0.404349 45.5074 0.362158 45.561C0.351414 45.574 0.340931 45.5877 0.330711 45.6001C-0.0154628 46.0353 -0.0828108 46.4425 0.0956483 46.8331C0.110585 46.8661 0.127881 46.8996 0.147273 46.9318C0.148583 46.9363 0.149894 46.9387 0.151728 46.9413C0.27437 47.1618 0.478772 47.3807 0.765984 47.6068L1.37893 47.9966C1.37893 47.9966 1.65618 48.0895 1.01336 47.3258C0.370019 46.5613 2.53957 44.4496 2.53957 44.4496C3.53957 43.2942 7.69706 38.4266 9.72039 36.0571C9.72091 36.0576 9.72117 36.0582 9.7217 36.0587C9.91535 35.8377 10.1093 35.6166 10.3029 35.3956C10.4235 35.258 10.5367 35.1173 10.6441 34.9744C10.767 34.8305 10.8362 34.7492 10.8362 34.7492C11.0438 34.4262 11.1942 34.1259 11.3063 33.8468C11.5784 33.217 11.7151 32.5336 11.6591 31.7728C11.6116 31.1285 11.7492 30.5082 12.2241 30.0088C14.5912 27.5305 16.6902 24.804 19.147 22.4086C19.278 22.2818 19.3569 22.0463 19.5802 22.103C18.0739 23.9832 16.5681 25.8642 15.0608 27.7425C14.9704 27.8556 14.8509 27.9464 14.7752 28.0671C14.6525 28.2651 14.3155 28.4611 14.6234 28.7159C14.9164 28.9597 15.0799 28.6288 15.2455 28.4569C16.669 26.9836 17.9012 25.3432 19.2254 23.7844C19.5679 23.3822 19.8449 22.8929 20.3734 22.6565C20.499 22.984 20.2461 23.115 20.12 23.2779C18.7657 25.0369 17.3996 26.7863 16.0385 28.5414C15.8792 28.7455 15.7209 28.9523 15.5841 29.172C15.5005 29.3056 15.5312 29.4429 15.6777 29.5393C15.8074 29.6235 15.8949 29.5443 15.9706 29.4619C16.126 29.2919 16.2765 29.1162 16.4206 28.9367C17.9455 27.0343 19.4701 25.1309 21.087 23.2908C21.2678 23.6946 20.9989 23.8921 20.8367 24.11C19.4921 25.912 18.1281 27.7024 16.7906 29.51C16.6342 29.7204 16.1701 29.9742 16.5781 30.2713C16.9015 30.5066 17.0474 30.0563 17.2026 29.8583C18.5967 28.094 19.9751 26.3163 21.3582 24.5423C21.527 24.3286 21.6992 24.1171 21.9785 23.7672C22.0359 24.3865 21.7497 24.6503 21.5501 24.9302C19.6719 27.5556 17.7775 30.1717 15.9017 32.8003C15.4484 33.4351 14.8425 33.7684 14.0972 33.845C12.9366 33.9635 12.0883 34.5659 11.3504 35.4455C10.9969 35.8662 10.6538 36.2945 10.3168 36.7273C14.9971 41.6934 22.6239 43.4477 29.3802 39.9289C31.5634 38.7921 33.3931 37.1916 34.7972 35.2926C33.3671 33.5664 31.8504 31.941 30.4064 30.5499C29.4041 29.4757 29.3412 29.2361 30.1315 28.52C29.6077 27.9377 29.3713 27.9733 28.5852 28.4138C28.3155 28.5643 28.0629 28.6327 27.8637 28.4714L27.8905 28.5152C24.3677 24.8526 22.271 21.6372 21.0238 19.1544C20.9995 19.1048 20.9754 19.0567 20.9505 19.0084C20.8823 18.8703 20.8176 18.734 20.7545 18.5999C20.7209 18.5315 20.6895 18.4626 20.6575 18.3947C20.5928 18.2534 20.5299 18.1156 20.4709 17.9806C20.4426 17.9175 20.4159 17.8541 20.3891 17.7923C20.2031 17.359 20.0456 16.9555 19.9125 16.5858C19.8894 16.52 19.8663 16.4553 19.8443 16.3909C19.7911 16.2391 19.7427 16.092 19.6984 15.9512C19.2605 14.5736 19.206 13.802 19.206 13.802C20.8677 15.5477 22.3255 17.4221 23.843 19.2458C25.4557 21.1854 27.097 23.1004 28.7432 25.0113C28.739 25.0065 28.7314 24.9986 28.7314 24.9986L29.3063 25.6654C29.7492 26.1787 30.1921 26.6923 30.6347 27.2062L31.3865 28.1049C31.3871 28.1054 31.3873 28.1062 31.3878 28.1067C31.3881 28.107 31.3886 28.1078 31.3891 28.108L33.6853 30.853C34.43 31.7517 35.1764 32.6493 35.9227 33.5466C35.9248 33.5426 35.9269 33.5387 35.9287 33.535L38.3079 36.3787C38.4494 36.5823 38.5673 36.7513 38.657 36.8792C38.657 36.8792 40.6106 39.217 39.8894 39.9141C39.168 40.6113 39.4549 40.5468 39.4549 40.5468L40.1077 40.221C40.4182 40.025 40.6447 39.8275 40.7898 39.62C40.7919 39.6173 40.7935 39.6144 40.7953 39.6104C40.8176 39.5801 40.8383 39.5492 40.8569 39.5167C41.0747 39.1444 41.0487 38.7306 40.7471 38.2595Z" fill="url(#paint0_linear)"/>
<path d="M30.4466 16.444C31.5587 16.5803 32.6442 15.7743 32.8708 14.5358C33.2435 12.4998 32.3913 10.8924 30.972 9.53747C30.374 8.96655 29.6596 8.58866 28.7951 8.45029C29.0729 10.0065 29.0506 10.139 28.668 11.8021C28.4995 12.536 28.325 13.2857 28.303 14.033C28.2655 15.2895 29.2144 16.2929 30.4466 16.444Z" fill="url(#paint1_linear)"/>
</g>
<defs>
<linearGradient id="paint0_linear" x1="-1.54217e-06" y1="-20.3938" x2="47.6335" y2="-20.3938" gradientUnits="userSpaceOnUse">
<stop stop-color="white"/>
</linearGradient>
<linearGradient id="paint1_linear" x1="28.3019" y1="6.36824" x2="36.2494" y2="6.36824" gradientUnits="userSpaceOnUse">
<stop stop-color="white"/>
</linearGradient>
<clipPath id="clip0">
<rect width="41" height="48" fill="white"/>
</clipPath>
</defs>
</svg>
