<svg width="56" height="48" viewBox="0 0 56 48" fill="none" xmlns="http://www.w3.org/2000/svg">
<path d="M40.6441 41.8021V26.0373C43.6879 24.9458 45.726 22.0308 45.735 18.7558V5.84592H40.6441V18.7558C40.6441 20.1818 39.5047 21.338 38.0989 21.338C36.6931 21.338 35.5532 20.1822 35.5532 18.7558V5.84592H30.4623V18.7558C30.4714 22.0303 32.5095 24.9454 35.5532 26.0373V41.8021H40.6441V41.8021Z" fill="white"/>
<path d="M19.2382 41.3845V25.6197C22.2819 24.5282 24.32 21.6132 24.3291 18.3382V13.1742C24.3291 8.89623 20.9103 5.42834 16.6929 5.42834C12.4751 5.42834 9.05637 8.89623 9.05637 13.1742V18.3382C9.06542 21.6128 11.1035 24.5278 14.1473 25.6197V41.3845H19.2382V41.3845Z" fill="white"/>
</svg>
