<?xml version="1.0" standalone="no"?><svg xmlns="http://www.w3.org/2000/svg" viewBox="0 0 1440 320"><path fill="#0099ff" fill-opacity="1" d="M0,64L34.3,53.3C68.6,43,137,21,206,16C274.3,11,343,21,411,58.7C480,96,549,160,617,197.3C685.7,235,754,245,823,213.3C891.4,181,960,107,1029,112C1097.1,117,1166,203,1234,234.7C1302.9,267,1371,245,1406,234.7L1440,224L1440,0L1405.7,0C1371.4,0,1303,0,1234,0C1165.7,0,1097,0,1029,0C960,0,891,0,823,0C754.3,0,686,0,617,0C548.6,0,480,0,411,0C342.9,0,274,0,206,0C137.1,0,69,0,34,0L0,0Z"></path></svg>